<svg fill="none" height="64" viewBox="0 0 166 64" width="166" xmlns="http://www.w3.org/2000/svg" xmlns:xlink="http://www.w3.org/1999/xlink"><filter id="a" color-interpolation-filters="sRGB" filterUnits="userSpaceOnUse" height="62" width="62" x="103.5" y="0"><feFlood flood-opacity="0" result="BackgroundImageFix"/><feColorMatrix in="SourceAlpha" result="hardAlpha" type="matrix" values="0 0 0 0 0 0 0 0 0 0 0 0 0 0 0 0 0 0 127 0"/><feOffset dy="4"/><feGaussianBlur stdDeviation="9.5"/><feComposite in2="hardAlpha" operator="out"/><feColorMatrix type="matrix" values="0 0 0 0 0.0862745 0 0 0 0 0.470588 0 0 0 0 0.94902 0 0 0 0.2 0"/><feBlend in2="BackgroundImageFix" mode="normal" result="effect1_dropShadow_3_413"/><feBlend in="SourceGraphic" in2="effect1_dropShadow_3_413" mode="normal" result="shape"/><feColorMatrix in="SourceAlpha" result="hardAlpha" type="matrix" values="0 0 0 0 0 0 0 0 0 0 0 0 0 0 0 0 0 0 127 0"/><feOffset dy="4"/><feGaussianBlur stdDeviation="2"/><feComposite in2="hardAlpha" k2="-1" k3="1" operator="arithmetic"/><feColorMatrix type="matrix" values="0 0 0 0 0 0 0 0 0 0 0 0 0 0 0 0 0 0 0.12 0"/><feBlend in2="shape" mode="normal" result="effect2_innerShadow_3_413"/></filter><linearGradient id="b" gradientUnits="userSpaceOnUse" x1="-8.52994" x2="234.505" y1="8.31348" y2="84.1421"><stop offset="0" stop-color="#3a8ef6"/><stop offset="1" stop-color="#6f3afa"/></linearGradient><g filter="url(#a)"><circle cx="134.5" cy="27" fill="#5fd3bd" r="12"/></g><rect fill="#fff" height="13.5652" rx=".782609" width="5.21739" x="131.891" y="20.2175"/><rect fill="#fff" height="13.5652" rx=".782609" transform="matrix(0 1 -1 0 165.6744 -116.8916)" width="5.21739" x="141.283" y="24.3914"/><path d="m7.732 55.1278v-4.896h4.352c1.088 0 2.0693-.16 2.944-.48.8747-.3414 1.6213-.8107 2.24-1.408.6187-.6187 1.088-1.3547 1.408-2.208.32-.8747.48-1.8347.48-2.88 0-1.088-.16-2.0587-.48-2.912-.32-.8534-.7893-1.5787-1.408-2.176-.6187-.5974-1.3653-1.0454-2.24-1.344-.8747-.32-1.856-.48-2.944-.48h-4.352v-4.896h4.064c2.112 0 3.9573.3093 5.536.928 1.5787.6186 2.9013 1.4613 3.968 2.528 1.0667 1.0666 1.856 2.2933 2.368 3.68.5333 1.3653.8 2.8053.8 4.32v.704c0 1.408-.2667 2.8053-.8 4.192-.512 1.3653-1.3013 2.6026-2.368 3.712-1.0667 1.088-2.3893 1.9626-3.968 2.624-1.5787.6613-3.424.992-5.536.992zm-4.608 0v-23.68h5.248v23.68zm33.256.48c-1.536 0-2.9013-.2347-4.096-.704-1.1947-.4907-2.208-1.152-3.04-1.984-.8107-.832-1.4293-1.7814-1.856-2.848-.4267-1.088-.64-2.2294-.64-3.424v-.736c0-1.216.2133-2.368.64-3.456.448-1.1094 1.088-2.08 1.92-2.912.8533-.832 1.8773-1.4827 3.072-1.952 1.1947-.4907 2.528-.736 4-.736 1.5147 0 2.8587.2453 4.032.736 1.1947.4693 2.208 1.12 3.04 1.952s1.472 1.8026 1.92 2.912c.448 1.088.672 2.24.672 3.456v.736c0 1.1946-.2133 2.336-.64 3.424-.4267 1.0666-1.056 2.016-1.888 2.848-.8107.832-1.8133 1.4933-3.008 1.984-1.1947.4693-2.5707.704-4.128.704zm0-4.32c1.0027 0 1.8347-.2134 2.496-.64.6613-.4267 1.1627-1.024 1.504-1.792.3627-.768.544-1.6214.544-2.56 0-1.0027-.1813-1.8774-.544-2.624-.3627-.768-.8853-1.376-1.568-1.824-.6613-.448-1.472-.672-2.432-.672-.9387 0-1.7493.224-2.432.672s-1.2053 1.056-1.568 1.824c-.3413.7466-.512 1.6213-.512 2.624 0 .9386.1707 1.792.512 2.56s.8533 1.3653 1.536 1.792c.6827.4266 1.504.64 2.464.64zm21.1093 4.32c-1.5147 0-2.8374-.2454-3.968-.736-1.1094-.512-2.0374-1.1947-2.784-2.048-.7467-.8534-1.3014-1.8134-1.664-2.88-.3627-1.088-.544-2.208-.544-3.36v-.608c0-1.1947.192-2.336.576-3.424.384-1.1094.9493-2.0907 1.696-2.944.7466-.8534 1.6746-1.5254 2.784-2.016 1.1306-.4907 2.4213-.736 3.872-.736 1.5786 0 2.976.3093 4.192.928 1.216.5973 2.1866 1.44 2.912 2.528.7253 1.088 1.1306 2.336 1.216 3.744h-5.024c-.0854-.7894-.4054-1.4507-.96-1.984-.5334-.5547-1.312-.832-2.336-.832-.8534 0-1.568.2133-2.144.64-.5547.4266-.9707 1.0133-1.248 1.76-.2774.7466-.416 1.632-.416 2.656 0 .9386.128 1.792.384 2.56.256.7466.6613 1.3333 1.216 1.76.576.4053 1.3226.608 2.24.608.6826 0 1.2586-.1174 1.728-.352.4906-.256.8746-.5974 1.152-1.024.2986-.448.48-.96.544-1.536h4.992c-.064 1.4506-.4694 2.7306-1.216 3.84-.7467 1.088-1.7387 1.9413-2.976 2.56-1.2374.5973-2.6454.896-4.224.896zm19.6585-.384c-1.7707 0-3.2-.2134-4.288-.64-1.088-.448-1.888-1.184-2.4-2.208-.4907-1.0454-.736-2.4534-.736-4.224v-15.424h4.768v15.616c0 .832.2133 1.472.64 1.92.448.4266 1.0773.64 1.888.64h2.592v4.32zm-10.08-14.016v-3.744h12.544v3.744zm24.4685 14.4c-1.536 0-2.9014-.2347-4.096-.704-1.1947-.4907-2.208-1.152-3.04-1.984-.8107-.832-1.4294-1.7814-1.856-2.848-.4267-1.088-.64-2.2294-.64-3.424v-.736c0-1.216.2133-2.368.64-3.456.448-1.1094 1.088-2.08 1.92-2.912.8533-.832 1.8773-1.4827 3.072-1.952 1.1946-.4907 2.528-.736 4-.736 1.5146 0 2.8586.2453 4.032.736 1.1946.4693 2.208 1.12 3.04 1.952s1.4717 1.8026 1.9197 2.912c.448 1.088.672 2.24.672 3.456v.736c0 1.1946-.213 2.336-.64 3.424-.426 1.0666-1.0557 2.016-1.8877 2.848-.8107.832-1.8134 1.4933-3.008 1.984-1.1947.4693-2.5707.704-4.128.704zm0-4.32c1.0026 0 1.8346-.2134 2.496-.64.6613-.4267 1.1626-1.024 1.504-1.792.3626-.768.544-1.6214.544-2.56 0-1.0027-.1814-1.8774-.544-2.624-.3627-.768-.8854-1.376-1.568-1.824-.6614-.448-1.472-.672-2.432-.672-.9387 0-1.7494.224-2.4321.672-.6826.448-1.2053 1.056-1.5679 1.824-.3414.7466-.512 1.6213-.512 2.624 0 .9386.1706 1.792.512 2.56.3413.768.8533 1.3653 1.536 1.792.6826.4266 1.504.64 2.464.64zm13.2377 3.712v-17.536h4.064v7.52h-.096c0-2.4747.522-4.384 1.568-5.728 1.066-1.344 2.602-2.016 4.608-2.016h.672v4.416h-1.28c-1.408 0-2.496.384-3.264 1.152-.768.7466-1.152 1.8346-1.152 3.264v8.928z" fill="url(#b)"/></svg>