<svg fill="none" height="64" viewBox="0 0 159 64" width="159" xmlns="http://www.w3.org/2000/svg" xmlns:xlink="http://www.w3.org/1999/xlink"><filter id="a" color-interpolation-filters="sRGB" filterUnits="userSpaceOnUse" height="62" width="62" x="97" y="0"><feFlood flood-opacity="0" result="BackgroundImageFix"/><feColorMatrix in="SourceAlpha" result="hardAlpha" type="matrix" values="0 0 0 0 0 0 0 0 0 0 0 0 0 0 0 0 0 0 127 0"/><feOffset dy="4"/><feGaussianBlur stdDeviation="9.5"/><feComposite in2="hardAlpha" operator="out"/><feColorMatrix type="matrix" values="0 0 0 0 0.0862745 0 0 0 0 0.470588 0 0 0 0 0.94902 0 0 0 0.2 0"/><feBlend in2="BackgroundImageFix" mode="normal" result="effect1_dropShadow_3_26"/><feBlend in="SourceGraphic" in2="effect1_dropShadow_3_26" mode="normal" result="shape"/><feColorMatrix in="SourceAlpha" result="hardAlpha" type="matrix" values="0 0 0 0 0 0 0 0 0 0 0 0 0 0 0 0 0 0 127 0"/><feOffset dy="4"/><feGaussianBlur stdDeviation="2"/><feComposite in2="hardAlpha" k2="-1" k3="1" operator="arithmetic"/><feColorMatrix type="matrix" values="0 0 0 0 0 0 0 0 0 0 0 0 0 0 0 0 0 0 0.12 0"/><feBlend in2="shape" mode="normal" result="effect2_innerShadow_3_26"/></filter><linearGradient id="b"><stop offset="0" stop-color="#1678f2"/><stop offset="1" stop-color="#65a8fb"/></linearGradient><linearGradient id="c" gradientUnits="userSpaceOnUse" x1="126.696" x2="139.25" xlink:href="#b" y1="18.7102" y2="25.6269"/><linearGradient id="d" gradientUnits="userSpaceOnUse" x1="136.087" x2="148.641" xlink:href="#b" y1="22.8841" y2="29.8007"/><g filter="url(#a)"><circle cx="128" cy="27" fill="#fff" r="12"/></g><rect fill="url(#c)" height="13.5652" rx=".782609" width="5.21739" x="125.391" y="20.2175"/><rect fill="url(#d)" height="13.5652" rx=".782609" transform="matrix(0 1 -1 0 159.1743 -110.3917)" width="5.21739" x="134.783" y="24.3913"/><path d="m6.784 55.128v-4.224h4.832c1.216 0 2.2933-.1813 3.232-.544.96-.384 1.7707-.9173 2.432-1.6s1.1627-1.4827 1.504-2.4c.3627-.9387.544-1.9733.544-3.104 0-1.1733-.1813-2.2187-.544-3.136-.3413-.9387-.8427-1.7387-1.504-2.4s-1.472-1.1627-2.432-1.504c-.9387-.3413-2.016-.512-3.232-.512h-4.832v-4.224h4.544c2.112 0 3.9573.3093 5.536.928s2.8907 1.472 3.936 2.56c1.0453 1.0667 1.824 2.2933 2.336 3.68.5333 1.3653.8 2.784.8 4.256v.704c0 1.408-.2667 2.7947-.8 4.16-.512 1.3653-1.2907 2.6027-2.336 3.712s-2.3573 1.9947-3.936 2.656-3.424.992-5.536.992zm-3.904 0v-23.648h4.544v23.648zm33.125.48c-1.536 0-2.8907-.2453-4.064-.736s-2.1653-1.152-2.976-1.984c-.8107-.8533-1.4293-1.8133-1.856-2.88-.4053-1.0667-.608-2.176-.608-3.328v-.672c0-1.1947.2133-2.3253.64-3.392.448-1.088 1.0773-2.048 1.888-2.88.832-.8533 1.8347-1.5147 3.008-1.984 1.1733-.4907 2.496-.736 3.968-.736s2.7947.2453 3.968.736c1.1733.4693 2.1653 1.1307 2.976 1.984.832.832 1.4613 1.792 1.888 2.88.4267 1.0667.64 2.1973.64 3.392v.672c0 1.152-.2133 2.2613-.64 3.328-.4053 1.0667-1.0133 2.0267-1.824 2.88-.8107.832-1.8027 1.4933-2.976 1.984s-2.5173.736-4.032.736zm0-3.808c1.088 0 2.0053-.2347 2.752-.704.7467-.4907 1.312-1.1413 1.696-1.952.384-.832.576-1.7707.576-2.816 0-1.0667-.2027-2.0053-.608-2.816-.384-.832-.96-1.4827-1.728-1.952-.7467-.4907-1.6427-.736-2.688-.736s-1.952.2453-2.72.736c-.7467.4693-1.3227 1.12-1.728 1.952-.4053.8107-.608 1.7493-.608 2.816 0 1.0453.192 1.984.576 2.816.4053.8107.9813 1.4613 1.728 1.952.7467.4693 1.664.704 2.752.704zm21.0788 3.808c-1.5147 0-2.8267-.256-3.936-.768-1.088-.512-2.0054-1.1947-2.752-2.048-.7254-.8533-1.2694-1.8133-1.632-2.88-.3627-1.0667-.544-2.1547-.544-3.264v-.608c0-1.1733.1813-2.2933.544-3.36.384-1.088.9493-2.048 1.696-2.88.7466-.8533 1.664-1.5253 2.752-2.016 1.1093-.512 2.3893-.768 3.84-.768 1.5146 0 2.8693.2987 4.064.896 1.1946.576 2.144 1.3867 2.848 2.432.7253 1.0453 1.1306 2.2613 1.216 3.648h-4.32c-.1067-.896-.4907-1.6427-1.152-2.24-.64-.5973-1.5254-.896-2.656-.896-.9814 0-1.8027.2347-2.464.704-.64.4693-1.12 1.12-1.44 1.952-.32.8107-.48 1.7493-.48 2.816 0 1.024.1493 1.952.448 2.784.32.832.8 1.4827 1.44 1.952.6613.4693 1.504.704 2.528.704.768 0 1.4293-.1387 1.984-.416.5546-.2773.992-.6613 1.312-1.152.3413-.4907.5546-1.0453.64-1.664h4.32c-.0854 1.408-.5014 2.6453-1.248 3.712-.7254 1.0453-1.696 1.8667-2.912 2.464-1.1947.5973-2.56.896-4.096.896zm19.3712-.384c-1.6 0-2.9227-.2027-3.968-.608-1.024-.4267-1.792-1.1307-2.304-2.112-.512-1.0027-.768-2.3467-.768-4.032l.032-15.744h4.16l-.032 16.032c0 .8533.224 1.5147.672 1.984.4693.448 1.1307.672 1.984.672h2.72v3.808zm-9.792-14.336v-3.264h12.288v3.264zm24.2795 14.72c-1.536 0-2.8907-.2453-4.064-.736s-2.1653-1.152-2.976-1.984c-.8107-.8533-1.4293-1.8133-1.856-2.88-.4053-1.0667-.608-2.176-.608-3.328v-.672c0-1.1947.2133-2.3253.64-3.392.448-1.088 1.0773-2.048 1.888-2.88.832-.8533 1.8347-1.5147 3.008-1.984 1.1733-.4907 2.496-.736 3.968-.736s2.7947.2453 3.968.736c1.1733.4693 2.1653 1.1307 2.976 1.984.832.832 1.4613 1.792 1.888 2.88.4265 1.0667.6405 2.1973.6405 3.392v.672c0 1.152-.214 2.2613-.6405 3.328-.4053 1.0667-1.0133 2.0267-1.824 2.88-.8107.832-1.8027 1.4933-2.976 1.984s-2.5173.736-4.032.736zm0-3.808c1.088 0 2.0053-.2347 2.752-.704.7467-.4907 1.312-1.1413 1.696-1.952.384-.832.576-1.7707.576-2.816 0-1.0667-.2027-2.0053-.608-2.816-.384-.832-.96-1.4827-1.728-1.952-.7467-.4907-1.6427-.736-2.688-.736s-1.952.2453-2.72.736c-.7467.4693-1.3227 1.12-1.728 1.952-.4053.8107-.608 1.7493-.608 2.816 0 1.0453.192 1.984.576 2.816.4053.8107.9813 1.4613 1.728 1.952.7467.4693 1.664.704 2.752.704zm13.3665 3.2v-17.376h3.52v7.36h-.096c0-2.496.534-4.384 1.6-5.664 1.067-1.28 2.635-1.92 4.704-1.92h.64v3.872h-1.216c-1.493 0-2.656.4053-3.488 1.216-.81.7893-1.216 1.9413-1.216 3.456v9.056z" fill="#fff"/></svg>